<?xml version="1.0" encoding="utf-8"?>
<!-- Generator: Adobe Illustrator 16.2.0, SVG Export Plug-In . SVG Version: 6.00 Build 0)  -->
<!DOCTYPE svg PUBLIC "-//W3C//DTD SVG 1.1//EN" "http://www.w3.org/Graphics/SVG/1.1/DTD/svg11.dtd">
<svg version="1.1" id="Слой_1" xmlns="http://www.w3.org/2000/svg" xmlns:xlink="http://www.w3.org/1999/xlink" x="0px" y="0px"
	 width="928px" height="1556px" viewBox="0 0 928 1556" enable-background="new 0 0 928 1556" xml:space="preserve">
<g>
	<g>
		<path fill="#FFFFFF" d="M232,98c0,49.508,0,99.016,0,148.523c0,4.712,2.245,17.244-3.671,19.298
			c-1.937,0.673-4.78,0.179-6.752,0.179c-5.026,0-10.052,0-15.078,0c-30.403,0-60.807,0-91.21,0c-4.697,0-9.394,0-14.091,0
			c-3.128,0-6.48,0.538-8.516-2.477C91.573,261.881,92,258.84,92,256.96c0-4.093,0-8.186,0-12.278c0-30.087,0-60.175,0-90.262
			c0-18.806,0-37.613,0-56.419c0-6.449-10-6.449-10,0c0,49.508,0,99.016,0,148.523c0,6.131-1.4,15.176,1.468,20.893
			c5.139,10.24,16.305,8.584,25.796,8.584c30.025,0,60.05,0,90.074,0c9.008,0,18.015,0,27.022,0c7.762,0,15.003-5.559,15.547-13.643
			c0.129-1.914,0.091-3.825,0.091-5.743c0-26.204,0-52.407,0-78.611c0-26.667,0-53.335,0-80.003C242,91.551,232,91.551,232,98
			L232,98z"/>
	</g>
</g>
<g>
	<g>
		<path fill="#FFFFFF" d="M111,132.333c0,35,0,70,0,105c0,6.449,10,6.449,10,0c0-35,0-70,0-105C121,125.885,111,125.885,111,132.333
			L111,132.333z"/>
	</g>
</g>
<g>
	<g>
		<path fill="#FFFFFF" d="M204,132.333c0,35,0,70,0,105c0,6.449,10,6.449,10,0c0-35,0-70,0-105C214,125.885,204,125.885,204,132.333
			L204,132.333z"/>
	</g>
</g>
<g>
	<g>
		<path fill="#FFFFFF" d="M158,132.333c0,35,0,70,0,105c0,6.449,10,6.449,10,0c0-35,0-70,0-105C168,125.885,158,125.885,158,132.333
			L158,132.333z"/>
	</g>
</g>
<g>
	<g>
		<path fill="#FFFFFF" d="M141.82,43.782c0.48-2.519,1.034-5.002,2.155-7.322c1.204-2.49-3.292-1.02-1.565-0.73
			c1.82,0.305,3.641,0.61,5.462,0.915c6.686,1.12,13.371,2.24,20.056,3.36c6.792,1.138,13.583,2.275,20.374,3.413
			c1.96,0.329,3.92,0.657,5.88,0.985c0.277,0.046,0.555,0.093,0.833,0.139c-0.532-0.377-1.065-0.755-1.597-1.133
			c0.266,0.812,0.405,1.646,0.418,2.502c0.144,1.805-0.033,3.712-0.287,5.494c-0.899,6.305,8.735,9.021,9.643,2.658
			c0.794-5.569,1.848-13.308-2.73-17.644c-1.665-1.577-3.823-1.694-5.945-2.049c-7.977-1.336-15.953-2.673-23.93-4.009
			c-7.809-1.308-15.617-2.616-23.425-3.924c-1.711-0.287-4.287-1.087-5.909-0.429c-6.007,2.439-7.956,9.241-9.075,15.115
			C130.977,47.424,140.614,50.112,141.82,43.782L141.82,43.782z"/>
	</g>
</g>
<g>
	<g>
		<path fill="#FFFFFF" d="M235.434,76.42c-1.948,8.202-15.671,2.991-21.249,2.057c-14.286-2.394-28.572-4.787-42.857-7.18
			c-24.757-4.147-49.514-8.295-74.271-12.443c-0.835-0.14-1.606-0.303-2.44-0.501c-4.928-1.17-3.635-8.839-1.12-11.485
			c1.997-2.102,5.466-0.927,7.888-0.521c11.237,1.882,22.475,3.765,33.712,5.648c28.936,4.848,57.872,9.695,86.808,14.543
			c2.73,0.458,5.46,0.915,8.191,1.373C234.951,68.723,236.21,71.78,235.434,76.42c-1.056,6.306,8.579,9.008,9.643,2.658
			c0.692-4.13,1.292-8.042-0.521-12.015c-1.962-4.302-5.959-7.817-10.724-8.615c-2.11-0.354-4.219-0.707-6.329-1.061
			c-12.063-2.021-24.125-4.042-36.188-6.063c-28.251-4.733-56.502-9.466-84.753-14.199c-2.246-0.376-4.492-0.752-6.738-1.129
			c-9.936-1.665-16.643,5.08-18.195,14.339c-1.377,8.216,3.373,16.586,11.989,18.03c2.646,0.443,5.291,0.886,7.936,1.33
			c28.681,4.805,57.361,9.61,86.042,14.415c10.997,1.843,21.994,3.685,32.992,5.527c2.196,0.368,4.392,0.736,6.588,1.104
			c8.341,1.397,15.925-3.344,17.9-11.663C246.565,72.808,236.923,70.147,235.434,76.42z"/>
	</g>
</g>
<g>
	<g>
		<path fill="#FFFFFF" d="M137,91.333c-16.667,0-33.333,0-49.999,0c-6.449,0-6.449,10,0,10c16.667,0,33.333,0,49.999,0
			C143.449,101.333,143.449,91.333,137,91.333L137,91.333z"/>
	</g>
</g>
<g>
	<g>
		<path fill="#FFFFFF" d="M164.765,91.333c-3.239,0-6.477,0-9.716,0c-6.449,0-6.449,10,0,10c3.239,0,6.477,0,9.716,0
			C171.213,101.333,171.213,91.333,164.765,91.333L164.765,91.333z"/>
	</g>
</g>
<g>
	<g>
		<path fill="#FFFFFF" d="M408.667,51.666c42,0,84,0,126,0c-1.179-0.488-2.357-0.976-3.535-1.464
			c8.888,8.667,17.776,17.334,26.667,26c-0.488-1.179-0.977-2.357-1.465-3.536c0,43.563,0,87.126,0,130.689
			c0,5.521,0,11.041,0,16.561c0,2.314,0.223,4.43-1.464,6.286c-1.71,1.881-4.526,1.464-6.805,1.464c-12.212,0-24.424,0-36.636,0
			c-21.481,0-42.964,0-64.444,0c-10.537,0-21.073,0-31.61,0c-4.83,0-9.66,0-14.491,0c-5.787,0-12.888,1.18-18.527-0.271
			c-5.344-1.374-3.355-12.333-3.355-16.075c0-4.739,0-9.478,0-14.216c0-11.932,0-23.864,0-35.796c0-17.589,0-35.178,0-52.767
			c0-9.737,0-19.474,0-29.21c0-3.773,0-7.546,0-11.319c0-3.979-1.507-11.611,1.464-14.882c4.325-4.761-2.726-11.854-7.071-7.071
			C368.341,51.62,369,58.155,369,65.106c0,4.951,0,9.903,0,14.854c0,12.137,0,24.274,0,36.411c0,21.427,0,42.854,0,64.282
			c0,10.222,0,20.444,0,30.667c0,6.382-1.07,13.763,2.391,19.461c4.104,6.754,11.389,6.885,18.325,6.885c22.171,0,44.342,0,66.515,0
			c22.212,0,44.424,0,66.636,0c4.724,0,9.447,0,14.17,0c6.067,0,13.688,1.169,19.521-0.964c13.271-4.854,9.778-22.721,9.778-33.757
			c0-22.352,0-44.703,0-67.054c0-10.007,0-20.014,0-30.021c0-5.311,0-10.622,0-15.933c0-3.432,0-6.864,0-10.295
			c0-2.571,0.519-5.774-0.179-8.304c-0.742-2.697-3.98-4.833-5.933-6.735c-2.005-1.955-4.01-3.911-6.015-5.865
			c-4.163-4.059-8.326-8.118-12.488-12.176c-1.959-1.909-4.095-4.895-7.094-4.895c-2.146,0-4.291,0-6.436,0
			c-7.373,0-14.745,0-22.117,0c-21.651,0-43.302,0-64.953,0c-10.818,0-21.636,0-32.454,0
			C402.219,41.666,402.219,51.666,408.667,51.666L408.667,51.666z"/>
	</g>
</g>
<g>
	<g>
		<path fill="#FFFFFF" d="M417.667,215.333c0-12.321,0-24.642,0-36.962c0-3.95-1.18-10.183,0.683-13.894
			c1.681-3.346,6.995-2.477,10.057-2.477c27.169,0,54.338,0,81.508,0c4.232,0,8.421,0.462,8.421,5.962c0,6.695,0,13.391,0,20.087
			c0,14.539,0,29.079,0,43.618c0,6.449,10,6.449,10,0c0-11.277,0-22.555,0-33.833c0-7.454,0-14.909,0-22.363
			c0-4.144,0.298-8.377-0.536-12.458C525.064,149.632,508.565,152,498.604,152c-15.556,0-31.11,0-46.666,0
			c-8.478,0-16.952,0-25.43,0c-1.738,0-3.465-0.025-5.198,0.091c-7.629,0.513-13.644,7.399-13.644,14.936
			c0,16.102,0,32.204,0,48.306C407.667,221.781,417.667,221.781,417.667,215.333L417.667,215.333z"/>
	</g>
</g>
<g>
	<g>
		<path fill="#FFFFFF" d="M521.667,68.666c0,12.399,0,24.798,0,37.197c0,4.082,0.53,11.136-5.332,11.136c-3.416,0-6.831,0-10.247,0
			c-27.931,0-55.861,0-83.792,0c-4.877,0-8.629-1.016-8.629-7.247c0-6.491,0-12.981,0-19.471c0-14.539,0-29.077,0-43.615
			c0-6.449-10-6.449-10,0c0,11.298,0,22.596,0,33.894c0,7.362,0,14.724,0,22.085c0,4.438-0.344,9.001,0.852,13.32
			C408.15,129.083,422.323,127,432.688,127c15.462,0,30.924,0,46.386,0c9.827,0,19.653,0,29.48,0c7.084,0,13.902,0.683,19.124-5.337
			c5.993-6.911,3.988-19.195,3.988-27.647c0-8.45,0-16.9,0-25.35C531.667,62.217,521.667,62.217,521.667,68.666L521.667,68.666z"/>
	</g>
</g>
<g>
	<g>
		<path fill="#FFFFFF" d="M430.667,185.666c25.556,0,51.111,0,76.667,0c6.448,0,6.448-10,0-10c-25.556,0-51.111,0-76.667,0
			C424.219,175.666,424.219,185.666,430.667,185.666L430.667,185.666z"/>
	</g>
</g>
<g>
	<g>
		<path fill="#FFFFFF" d="M430.667,210.666c25.556,0,51.111,0,76.667,0c6.448,0,6.448-10,0-10c-25.556,0-51.111,0-76.667,0
			C424.219,200.666,424.219,210.666,430.667,210.666L430.667,210.666z"/>
	</g>
</g>
<g>
	<g>
		<path fill="#FFFFFF" d="M179.342,542.11c0.313-12.781,10.219-22.688,23-23c12.78-0.313,22.698,10.689,23,23
			c0.313,12.779-10.69,22.697-23,23C189.562,565.424,179.644,554.42,179.342,542.11c-0.158-6.438-10.158-6.452-10,0
			c0.448,18.284,14.714,32.552,33,33c18.283,0.447,32.568-15.391,33-33c0.448-18.282-15.389-32.568-33-33
			c-18.283-0.448-32.568,15.39-33,33C169.184,548.563,179.185,548.548,179.342,542.11z"/>
	</g>
</g>
<g>
	<g>
		<path fill="#FFFFFF" d="M33.975,513.473c13.763-31.714,44.244-52.344,78.917-52.694c34.521-0.351,65.362,21.46,78.917,52.694
			c2.562,5.902,11.174,0.806,8.635-5.047c-15.125-34.852-49.679-57.265-87.552-57.647c-37.705-0.382-72.654,23.319-87.552,57.647
			C22.8,514.277,31.413,519.375,33.975,513.473L33.975,513.473z"/>
	</g>
</g>
<g>
	<g>
		<path fill="#FFFFFF" d="M371.877,514.11c0.313-12.781,10.219-22.688,23-23c12.78-0.313,22.698,10.689,23,23
			c0.313,12.779-10.689,22.697-23,23C382.097,537.424,372.179,526.42,371.877,514.11c-0.158-6.438-10.158-6.452-10,0
			c0.448,18.284,14.714,32.552,33,33c18.283,0.447,32.568-15.391,33-33c0.448-18.282-15.389-32.568-33-33
			c-18.283-0.448-32.568,15.39-33,33C361.719,520.563,371.719,520.548,371.877,514.11z"/>
	</g>
</g>
<g>
	<g>
		<path fill="#FFFFFF" d="M399.194,485.473c13.765-31.713,44.241-52.344,78.917-52.694c34.521-0.351,65.363,21.459,78.917,52.694
			c2.561,5.902,11.174,0.806,8.635-5.047c-15.122-34.853-49.681-57.265-87.552-57.647c-37.707-0.382-72.652,23.32-87.553,57.647
			C388.02,486.277,396.632,491.375,399.194,485.473L399.194,485.473z"/>
	</g>
</g>
<g>
	<g>
		<path d="M733,123.999c0.248,22.649,11.314,43.16,29.836,56.098c18.486,12.913,43.527,14.932,64.137,6.215
			c20.411-8.633,35.419-27.019,39.976-48.685c4.67-22.208-2.664-45.376-18.436-61.475c-19.024-19.422-49.264-24.993-74.152-14.466
			C749.366,72.258,733.296,96.987,733,123.999c-0.07,6.451,9.93,6.444,10,0c0.25-22.844,13.411-42.876,33.988-52.625
			c20.606-9.763,45.899-4.992,62.577,10.048c17.061,15.386,22.704,39.701,15.666,61.307c-6.915,21.226-27.009,36.519-49.015,38.693
			c-33.708,3.33-62.852-23.95-63.218-57.423C742.93,117.555,732.93,117.548,733,123.999z"/>
	</g>
</g>
<g>
	<g>
		<path d="M805.666,79.666c-27.71,0.416-49.918,22.623-50.333,50.333c-0.097,6.452,9.903,6.442,10,0
			c0.334-22.246,18.087-40,40.333-40.333C812.108,89.569,812.118,79.569,805.666,79.666L805.666,79.666z"/>
	</g>
</g>
<g>
	<g>
		<path d="M757.912,174.558c-8.01,8.01-16.021,16.02-24.03,24.029c-5.061,5.062-10.122,10.123-15.184,15.184
			c-3.035,3.036-7.075,8.713-11.724,4.652c-2.224-1.943-5.455-4.609-5.652-7.725c-0.139-2.15,1.488-3.56,2.848-4.919
			c4.111-4.11,8.222-8.221,12.332-12.332c9.674-9.673,19.347-19.347,29.021-29.02c0.376-0.376,0.753-0.753,1.13-1.129
			c4.563-4.564-2.508-11.635-7.07-7.071c-8.011,8.01-16.021,16.02-24.03,24.029c-5.061,5.062-10.122,10.123-15.184,15.184
			c-3.513,3.512-6.914,6.489-8.541,11.393c-2.823,8.51,5.1,18.104,12.397,21.64c6.896,3.34,13.594,0.321,18.556-4.64
			c9.927-9.927,19.854-19.854,29.779-29.781c4.143-4.141,8.282-8.282,12.423-12.422
			C769.547,177.065,762.476,169.994,757.912,174.558L757.912,174.558z"/>
	</g>
</g>
<g>
	<g>
		<path fill="#FFFFFF" d="M810.671,411.56c-19.506,0.388-36.323,14.185-39.646,33.589c1.606-1.225,3.214-2.447,4.82-3.672
			c-0.266,0-0.53,0-0.797,0c1.607,1.225,3.214,2.447,4.821,3.672c-4.021-23.468-27.505-37.969-50.34-32.151
			c-23.128,5.892-35.25,32.294-26.521,53.97c3.944,9.792,13.338,18.715,20.088,26.864c10.023,12.102,20.048,24.202,30.071,36.304
			c6.278,7.579,12.557,15.159,18.836,22.738c1.627,1.965,5.443,1.965,7.07,0c15.828-19.107,31.655-38.215,47.483-57.322
			c6.263-7.56,13.712-15.106,18.862-23.504c12.557-20.472,2.49-48.144-19.123-57.285C821.31,412.651,816.082,411.665,810.671,411.56
			c-6.452-0.125-6.439,9.876,0,10c24.625,0.476,38.12,27.738,24.489,47.972c-4.986,7.4-11.643,14.085-17.321,20.94
			c-15.276,18.443-30.556,36.888-45.833,55.33c2.356,0,4.714,0,7.07,0c-15.785-19.058-31.57-38.114-47.356-57.171
			c-3.422-4.132-6.845-8.264-10.268-12.396c-3.514-4.242-7.272-8.138-9.376-13.36c-9.653-23.968,14.082-46.979,37.75-39.765
			c11.138,3.395,18.496,13.573,20.4,24.695c0.37,2.163,2.767,3.671,4.821,3.671c0.267,0,0.531,0,0.797,0
			c2.057,0,4.451-1.508,4.821-3.671c2.575-15.032,14.608-25.94,30.004-26.247C817.111,421.432,817.123,411.432,810.671,411.56z"/>
	</g>
</g>
<g>
	<g>
		<path fill="#F9F9F9" d="M739,434.332c-10.168,0.274-18.06,8.166-18.334,18.334c-0.174,6.453,9.826,6.436,10,0
			c0.126-4.655,3.679-8.208,8.334-8.334C745.436,444.159,745.452,434.158,739,434.332L739,434.332z"/>
	</g>
</g>
<g>
	<g>
		<path fill="#F9F9F9" d="M728.224,726.125c-10.169,0.274-18.06,8.166-18.334,18.334c-0.174,6.452,9.826,6.436,10,0
			c0.126-4.655,3.68-8.208,8.334-8.334C734.659,735.951,734.676,725.951,728.224,726.125L728.224,726.125z"/>
	</g>
</g>
<g>
	<g>
		<path fill="#FFFFFF" d="M764.671,733.271c-0.133,0-0.266,0-0.397,0c1.606,1.224,3.214,2.446,4.82,3.671
			c-4.729-27.114-34.411-40.988-58.626-28.833c-23.813,11.953-28.002,45.899-9.228,64.136c17.735,17.227,35.473,34.453,53.209,51.68
			c7.079,6.877,14.159,13.753,21.238,20.629c4.627,4.493,11.703-2.57,7.07-7.069c-17.521-17.019-35.04-34.035-52.561-51.053
			c-7.191-6.984-14.383-13.97-21.574-20.953c-19.474-18.914-5.819-51.524,20.823-52.123c15.375-0.347,27.466,11.699,30.004,26.245
			c0.377,2.162,2.76,3.672,4.821,3.672c0.133,0,0.266,0,0.397,0C771.119,743.271,771.119,733.271,764.671,733.271L764.671,733.271z"
			/>
	</g>
</g>
<g>
	<g>
		<path fill="#FFFFFF" d="M786.224,743.271c0.134,0,0.267,0,0.398,0c2.062,0,4.444-1.51,4.821-3.672
			c2.387-13.679,12.657-24.475,26.731-26.096c13.479-1.554,26.502,6.61,31.47,19.111c2.594,6.521,2.5,13.555,0.583,20.221
			c-0.262,0.911-0.532,1.881-1.073,2.676c-0.929,1.363,0.242-0.259-0.586,0.778c-3.011,3.768-6.229,7.376-9.406,10.999
			c-19.398,22.104-39.294,43.778-59.148,65.472c-1.44,1.574-2.883,3.148-4.324,4.723c-4.352,4.74,2.701,11.832,7.069,7.069
			c16.554-18.042,33.042-36.146,49.396-54.367c8.002-8.916,16.224-17.735,23.704-27.101c5.028-6.295,6.199-14.839,5.668-22.715
			c-0.857-12.683-8.123-23.729-18.492-30.734c-23.748-16.042-56.484,0.08-61.234,27.307c1.607-1.225,3.214-2.447,4.821-3.671
			c-0.133,0-0.267,0-0.398,0C779.775,733.271,779.775,743.271,786.224,743.271L786.224,743.271z"/>
	</g>
</g>
<g>
	<g>
		<path fill="#FFFFFF" d="M754.546,759.972c11.428,12.166,22.856,24.332,34.285,36.497c4.423,4.709,11.479-2.376,7.07-7.069
			c-11.429-12.166-22.856-24.332-34.285-36.497C757.193,748.192,750.136,755.277,754.546,759.972L754.546,759.972z"/>
	</g>
</g>
<g>
	<g>
		<path fill="#FFFFFF" d="M789.354,753.805c-11.776,11.563-23.555,23.127-35.332,34.69c-4.606,4.522,2.469,11.59,7.07,7.07
			c11.777-11.563,23.555-23.128,35.332-34.69C801.032,756.352,793.957,749.285,789.354,753.805L789.354,753.805z"/>
	</g>
</g>
<g>
	<g>
		<path fill="#FFFFFF" d="M183.875,849.716c9.153,4.861,15.561,14.615,20.48,23.481c6.719,12.107,9.587,26.056,9.721,39.803
			c0.063,6.445,10.063,6.451,10,0c-0.154-15.705-3.739-30.941-11.086-44.85c-5.454-10.324-13.578-21.498-24.068-27.069
			C183.23,838.059,178.178,846.69,183.875,849.716L183.875,849.716z"/>
	</g>
</g>
<g>
	<g>
		<path fill="#FFFFFF" d="M92.821,903.829c4.999-21.665,17.81-42.755,37.912-53.461c5.693-3.032,0.642-11.664-5.047-8.635
			c-22.228,11.838-36.967,35.42-42.508,59.438C81.73,907.447,91.372,910.111,92.821,903.829L92.821,903.829z"/>
	</g>
</g>
<g>
	<g>
		<path fill="#FFFFFF" d="M193.655,826.908c-4.355,9.807-11.548,17-21.355,21.354c-5.884,2.613-0.792,11.229,5.047,8.636
			c11.136-4.945,19.998-13.809,24.943-24.943C204.883,826.117,196.268,821.024,193.655,826.908L193.655,826.908z"/>
	</g>
</g>
<g>
	<g>
		<path fill="#FFFFFF" d="M141.188,848.264c-8.379-5.542-15.415-12.306-19.188-21.736c-5.452-13.631-2.135-29.229,7.509-40.047
			c16.71-18.743,51.541-15.672,62.284,7.756c2.686,5.855,11.303,0.771,8.635-5.047c-5.529-12.059-18.168-20.373-30.754-23.746
			c-16.981-4.551-35.24,1.504-47.235,13.967c-12.2,12.675-15.803,31.604-10.651,48.169c3.964,12.747,13.458,22.115,24.354,29.32
			C141.538,860.467,146.541,851.803,141.188,848.264L141.188,848.264z"/>
	</g>
</g>
<g>
	<g>
		<path fill="#FFFFFF" d="M231.99,765.465c-33.095,35.353-66.189,70.703-99.284,106.055c-15.905,16.99-31.81,33.979-47.715,50.971
			c-4.401,4.701,2.656,11.787,7.071,7.069c33.095-35.352,66.189-70.702,99.284-106.055c15.905-16.99,31.81-33.979,47.715-50.97
			C243.463,767.834,236.406,760.748,231.99,765.465L231.99,765.465z"/>
	</g>
</g>
<g>
	<g>
		<path fill="#FFFFFF" d="M394,908.024c-6.208,0-12.417,0-18.625,0c-3.017,0-6.188,0.015-7.424-3.43
			c-0.595-1.657-0.179-4.096-0.179-5.787c0-10.979,0-21.959,0-32.938c0-22.426,0-44.853,0-67.277c0-8.963,0-17.926,0-26.889
			c0-2.842-0.415-6.033,0.179-8.844c1.008-4.774,9.418-3.396,13.05-3.43c6.446-0.061,6.451-10,0-10c-2.743,0-5.486,0-8.229,0
			c-6.448,0-6.448,10,0,10c2.743,0,5.486,0,8.229,0c0-3.333,0-6.667,0-10c-8.496,0.08-17.272-0.267-21.76,8.384
			c-2.538,4.891-1.468,12.117-1.468,17.418c0,10.71,0,21.42,0,32.13c0,21.686,0,43.37,0,65.055c0,6.908,0,13.815,0,20.723
			c0,4.895-0.721,10.617,0.964,15.309c2.89,8.048,10.646,9.577,18.129,9.577c5.711,0,11.423,0,17.135,0
			C400.449,918.024,400.449,908.024,394,908.024L394,908.024z"/>
	</g>
</g>
<g>
	<g>
		<path fill="#FFFFFF" d="M460.111,759.432c24.341,0,48.682,0,73.021,0c10.438,0,20.877,0,31.314,0c5.57,0,5.78,4.3,5.78,8.547
			c0,7.496,0,14.992,0,22.489c0,21.365,0,42.73,0,64.097c0,10.625,0,21.251,0,31.877c0,5.626,0,11.252,0,16.877
			c0,4.96-5.101,4.707-8.538,4.707c-36.563,0-73.126,0-109.689,0c-6.448,0-6.448,10,0,10c23.814,0,47.63,0,71.445,0
			c12.482,0,24.967,0,37.45,0c3.661,0,7.335,0.214,10.748-1.443c7.444-3.612,8.584-10.415,8.584-17.771c0-44.902,0-89.806,0-134.707
			c0-8.259-7.122-14.671-15.198-14.671c-2.468,0-4.937,0-7.403,0c-12.005,0-24.009,0-36.014,0c-20.5,0-41.001,0-61.501,0
			C453.663,749.432,453.663,759.432,460.111,759.432L460.111,759.432z"/>
	</g>
</g>
<g>
	<g>
		<path fill="#FFFFFF" d="M439.667,886.826c-0.457,5.097-15.25,3.19-18.327,3.19c-2.669,0-17.34,1.719-17.34-3.199
			c0-6.659,0-13.318,0-19.979c0-30.809,0-61.616,0-92.424c0-10.378,0-20.755,0-31.133c0-3.451,0.162-6.283,5.05-6.283
			c6.321,0,12.643,0,18.963,0c3.101,0,11.654-1.18,11.654,3.627c0,2.656,0,5.313,0,7.969c0,12.508,0,25.017,0,37.523
			C439.667,819.688,439.667,853.257,439.667,886.826c0,6.448,10,6.448,10,0c0-47.74,0-95.479,0-143.221
			c0-3.386-0.104-6.149-1.612-9.392c-3.554-7.637-13.025-7.215-20.042-7.215C416.879,727,394,723.545,394,740.627
			c0,23.295,0,46.589,0,69.883c0,24.301,0,48.602,0,72.901c0,2.449-0.055,4.699,0.602,7.108c2.173,7.97,10.874,9.497,17.868,9.497
			c12.104,0,35.64,4.209,37.197-13.19C450.242,880.401,440.237,880.457,439.667,886.826z"/>
	</g>
</g>
<g>
	<g>
		<path fill="#FFFFFF" d="M426.15,926.482c-6.922-11.988-13.843-23.977-20.764-35.964c-1.438,2.509-2.878,5.017-4.316,7.523
			c13.842,0,27.685,0,41.525,0c-1.438-2.508-2.878-5.016-4.316-7.523c-6.921,11.987-13.844,23.976-20.765,35.964
			c-3.229,5.595,5.412,10.628,8.636,5.047c6.921-11.987,13.843-23.976,20.764-35.963c1.894-3.28-0.512-7.523-4.317-7.523
			c-13.842,0-27.685,0-41.525,0c-3.806,0-6.211,4.243-4.317,7.523c6.921,11.987,13.842,23.976,20.763,35.963
			C420.738,937.11,429.381,932.077,426.15,926.482z"/>
	</g>
</g>
<g>
	<g>
		<path fill="#FFFFFF" d="M477,802.791c24.333,0,48.667,0,73,0c6.448,0,6.448-10,0-10c-24.333,0-48.667,0-73,0
			C470.552,792.791,470.552,802.791,477,802.791L477,802.791z"/>
	</g>
</g>
<g>
	<g>
		<path fill="#FFFFFF" d="M477,837.398c24.333,0,48.667,0,73,0c6.448,0,6.448-10,0-10c-24.333,0-48.667,0-73,0
			C470.552,827.398,470.552,837.398,477,837.398L477,837.398z"/>
	</g>
</g>
<g>
	<g>
		<path fill="#FFFFFF" d="M97.823,1086.393c39.473,0,78.946,0,118.418,0c6.449,0,6.449-10,0-10c-39.473,0-78.946,0-118.418,0
			C91.375,1076.393,91.375,1086.393,97.823,1086.393L97.823,1086.393z"/>
	</g>
</g>
<g>
	<g>
		<path fill="#FFFFFF" d="M97.823,1121c39.473,0,78.946,0,118.418,0c6.449,0,6.449-10,0-10c-39.473,0-78.946,0-118.418,0
			C91.375,1111,91.375,1121,97.823,1121L97.823,1121z"/>
	</g>
</g>
<g>
	<g>
		<path fill="#FFFFFF" d="M237.342,1041c-49.282,0-98.563,0-147.845,0c-6.904,0-16.559-1.5-22.089,3.532
			c-7.667,6.978-5.751,18.921-5.751,28.3c0,29.259,0,58.518,0,87.776c0,2.889,0,5.776,0,8.666c0,8.418,6.112,16.726,15.048,16.726
			c8.594,0,17.187,0,25.781,0c27.325,0,54.65,0,81.976,0c0.504,0,1.008,0,1.512,0c1.363,0-2.688-1.119,0.286,0.682
			c3.645,2.208,5.015,5.438,3.181,9.318c-2.46,5.209-7.787,9.854-11.964,12.683c-3.873,2.622-2.762,9.541,2.523,9.317
			c22.148-0.938,42.641-14.817,50.821-35.671c-1.607,1.224-3.214,2.447-4.821,3.671c6.455,0,14.018,1.182,19.579-2.75
			c5.187-3.666,6.763-9.688,6.763-15.695c0-11.168,0-22.337,0-33.506c0-25.406,0-50.813,0-76.219
			C252.342,1048.928,246.311,1041.643,237.342,1041c-6.438-0.461-6.394,9.542,0,10c7.737,0.555,5,20.027,5,24.781
			c0,15.56,0,31.119,0,46.678c0,13.436,0,26.87,0,40.305c0,2.233,0,4.467,0,6.698c0,8.784-10.533,6.538-16.342,6.538
			c-2.403,0-3.996,1.567-4.821,3.671c0.125-0.319,0.493-1.098-0.112,0.213c-0.504,1.091-1.068,2.153-1.65,3.204
			c-1.852,3.346-4.07,6.455-6.59,9.327c-8.447,9.626-20.05,15.045-32.826,15.585c0.841,3.105,1.683,6.212,2.523,9.317
			c9.312-6.306,22.673-19.167,16.245-31.529c-2.528-4.862-8.086-9.788-13.769-9.788c-3.999,0-7.997,0-11.995,0
			c-29.123,0-58.247,0-87.37,0c-2.93,0-5.859,0-8.788,0c-4.696,0-5.19-5.164-5.19-8.74c0-11.384,0-22.768,0-34.15
			c0-25.129,0-50.256,0-75.384c0-8.911,10.271-6.726,16.175-6.726c12.68,0,25.359,0,38.04,0c30.575,0,61.15,0,91.725,0
			c6.582,0,13.164,0,19.746,0C243.791,1051,243.791,1041,237.342,1041z"/>
	</g>
</g>
<g>
	<g>
		<path fill="#FFFFFF" d="M549.038,1041.532c-2.396-5.327-10.818-11.942-16.777-12.246c-6.113-0.313-11.524,1.325-15.328,6.203
			c-6.084,7.804-12.168,15.605-18.253,23.41c-13.239,16.981-26.48,33.966-39.723,50.948c2.356,0,4.714,0,7.07,0
			c-7.902-8.482-15.807-16.966-23.708-25.447c-4.648-4.989-9.298-9.979-13.946-14.97c-3.985-4.277-7.317-6.808-13.764-5.682
			c-8.264,1.443-17.552,11.709-20.299,19.15c-2.047,5.546,0.938,9.646,4.428,13.393c9.492,10.188,18.982,20.375,28.474,30.563
			c7.146,7.668,14.29,15.338,21.437,23.008c1.242,1.334,2.974,1.679,4.341,2.725c1.441,1.104,2.772,2.177,4.429,2.947
			c5.252,2.447,11.311,1.074,15.827-2.244c3.646-2.677,6.503-5.177,9.209-8.646c17.36-22.267,34.721-44.532,52.081-66.8
			c3.971-5.094,7.941-10.188,11.913-15.28c0.722-0.926,1.443-1.852,2.166-2.777C552.962,1054.209,552.619,1047.424,549.038,1041.532
			c-3.343-5.501-11.993-0.479-8.635,5.047c2.864,4.714,0.894,6.451-1.781,9.881c-3.223,4.134-6.445,8.268-9.668,12.401
			c-9.666,12.396-19.332,24.795-28.998,37.191c-7.929,10.17-15.857,20.34-23.787,30.51c-0.841,1.078-1.681,2.156-2.521,3.234
			c-1.226,1.57-3.159,2.19-4.433,3.604c-3.896,4.323-7.041,3.719-11.181,0.552c-1.269-0.97-2.324-1.17-3.404-2.329
			c-16.938-18.18-33.877-36.36-50.813-54.541c-2.648-2.842,10.441-12.815,13.45-13.69c2.25-0.653,6.299,5.539,7.634,6.973
			c10.084,10.823,20.168,21.646,30.252,32.472c1.268,1.361,2.536,2.723,3.805,4.083c1.69,1.815,5.433,2.103,7.07,0
			c11.659-14.953,23.316-29.906,34.977-44.858c6.757-8.667,13.514-17.333,20.271-26c1.225-1.57,2.448-3.143,3.674-4.712
			c4.256-5.459,13.284,0.405,15.454,5.23C543.045,1052.452,551.66,1047.362,549.038,1041.532z"/>
	</g>
</g>
<g>
	<g>
		<path fill="#FFFFFF" d="M802.335,1096.025c7.659-7.619,15.317-15.239,22.978-22.859c2.845-2.83,5.798-5.585,8.492-8.561
			c6.851-7.561,4.907-16.974-1.681-23.594c-2.379-2.391-4.725-5.064-8.086-6.054c-4.893-1.438-9.599-0.527-13.963,1.984
			c-3.834,2.206-7.108,6.417-10.192,9.484c-7.861,7.821-15.723,15.644-23.584,23.465c2.356,0,4.714,0,7.07,0
			c-7.796-7.836-15.592-15.671-23.387-23.507c-2.983-2.999-5.886-6.115-9.021-8.956c-7.563-6.851-16.974-4.907-23.595,1.681
			c-2.392,2.379-5.064,4.725-6.055,8.086c-1.566,5.332-0.388,10.685,2.845,15.146c2.524,3.489,6.062,6.431,9.081,9.465
			c7.999,8.04,15.999,16.08,23.999,24.12c0-2.355,0-4.714,0-7.069c-7.869,7.828-15.737,15.656-23.606,23.485
			c-3.009,2.994-6.138,5.906-8.988,9.054c-6.849,7.563-4.908,16.975,1.681,23.595c2.379,2.391,4.725,5.064,8.087,6.054
			c5.331,1.568,10.685,0.389,15.146-2.843c3.5-2.534,6.449-6.082,9.494-9.111c8.074-8.034,16.148-16.067,24.224-24.102
			c-2.356,0-4.715,0-7.07,0c7.651,7.691,15.306,15.385,22.959,23.077c2.841,2.854,5.604,5.818,8.592,8.523
			c7.563,6.85,16.973,4.908,23.594-1.68c2.392-2.379,5.065-4.726,6.055-8.086c1.438-4.894,0.525-9.599-1.985-13.965
			c-2.213-3.845-6.438-7.129-9.515-10.222c-7.855-7.896-15.711-15.791-23.566-23.686c-4.552-4.576-11.622,2.495-7.07,7.069
			c6.349,6.381,12.696,12.762,19.045,19.144c3.374,3.392,6.748,6.782,10.122,10.175c1.189,1.193,2.197,2.303,3.062,3.804
			c1.966,3.415-0.321,5.814-2.553,8.033c-1.879,1.869-3.226,3.764-6.074,3.839c-2.379,0.063-4.316-1.664-5.885-3.24
			c-3.327-3.345-6.655-6.688-9.983-10.034c-6.574-6.607-13.148-13.217-19.724-19.823c-1.926-1.937-5.145-1.918-7.07,0
			c-6.55,6.516-13.1,13.031-19.648,19.549c-3.564,3.547-7.13,7.094-10.694,10.642c-1.184,1.177-2.285,2.172-3.771,3.027
			c-3.415,1.965-5.813-0.322-8.033-2.552c-2.234-2.246-4.361-3.813-3.628-7.347c0.419-2.012,1.865-3.457,3.258-4.842
			c3.432-3.413,6.861-6.826,10.292-10.24c6.777-6.743,13.556-13.485,20.331-20.229c1.937-1.925,1.918-5.145,0-7.07
			c-6.487-6.521-12.978-13.044-19.466-19.564c-3.532-3.552-7.063-7.102-10.597-10.65c-1.175-1.182-2.169-2.283-3.022-3.767
			c-1.965-3.416,0.321-5.814,2.553-8.033c2.244-2.234,3.813-4.363,7.345-3.628c2.011,0.418,3.455,1.862,4.839,3.255
			c3.397,3.416,6.798,6.832,10.196,10.248c6.715,6.749,13.43,13.498,20.145,20.246c1.925,1.936,5.145,1.918,7.07,0
			c6.354-6.32,12.707-12.643,19.061-18.963c3.376-3.359,6.753-6.721,10.13-10.079c1.193-1.188,2.302-2.192,3.8-3.056
			c3.416-1.965,5.813,0.322,8.032,2.553c1.87,1.879,3.765,3.227,3.841,6.076c0.063,2.377-1.663,4.313-3.238,5.881
			c-3.33,3.313-6.66,6.627-9.991,9.939c-6.579,6.546-13.158,13.092-19.737,19.639
			C790.688,1093.508,797.761,1100.577,802.335,1096.025z"/>
	</g>
</g>
<g>
	<g>
		<path fill="#F9F9F9" d="M546.5,1392.5c-20.167,0-40.333,0-60.5,0c1.667,1.667,3.333,3.333,5,5c0-11.715,0-23.431,0-35.146
			c0-6.457,0-12.916,0-19.373c0-6.916-1.885-13.149-8.584-16.512c-5.689-2.854-14.293-1.469-20.408-1.469
			c-7.444,0-14.586-0.913-20.614,4.395c-4.613,4.062-4.394,10.185-4.394,15.726c0,7.052,0,14.104,0,21.155
			c0,10.407,0,20.816,0,31.226c1.667-1.667,3.333-3.333,5-5c-11.574,0-23.148,0-34.723,0c-6.941,0-13.884,0-20.824,0
			c-5.848,0-10.815,0.217-15.561,4.394c-5.681,5-4.394,13.875-4.394,20.614c0,6.115-1.387,14.72,1.469,20.408
			c3.336,6.647,9.528,8.584,16.41,8.584c6.331,0,12.662,0,18.993,0c12.876,0,25.752,0,38.628,0c-1.667-1.667-3.333-3.333-5-5
			c0,11.244,0,22.488,0,33.733c0,7.326,0,14.652,0,21.979c0,4.276-0.459,8.909,0.965,13.008c3.05,8.781,11.478,9.778,19.388,9.778
			c6.217,0,12.433,0,18.647,0c8.893,0,15-7.479,15-15.964c0-5.166,0-10.333,0-15.499c0-15.679,0-31.358,0-47.037
			c-1.667,1.667-3.333,3.333-5,5c19.489,0,38.979,0,58.469,0c5.223,0,9.886-1.267,13.483-5.354
			c4.172-4.74,3.548-10.946,3.548-16.775c0-5.466,0-10.934,0-16.398C561.5,1399.226,554.992,1393.071,546.5,1392.5
			c-6.44-0.434-6.398,9.569,0,10c5.791,0.39,5,6.233,5,10.354c0,5.205,0,10.412,0,15.617c0,3.645-0.289,8.029-5.193,8.029
			c-2.66,0-5.322,0-7.984,0c-17.44,0-34.881,0-52.321,0c-2.726,0-5,2.274-5,5c0,11.244,0,22.488,0,33.733c0,7.327,0,14.652,0,21.979
			c0,3.758,1.119,9.676-2.477,12.104c-1.765,1.189-5.06,0.683-7.051,0.683c-4.114,0-8.229,0-12.345,0
			c-4.772,0-12.129,1.217-12.129-5.713c0-12.967,0-25.936,0-38.901c0-7.962,0-15.924,0-23.886c0-2.726-2.273-5-5-5
			c-11.574,0-23.148,0-34.723,0c-6.941,0-13.883,0-20.824,0c-4.209,0-9.953,0.596-9.953-5.473c0-6.832,0-13.666,0-20.498
			c0-2.839-0.24-5.512,2.477-7.348c1.365-0.922,3.387-0.683,4.963-0.683c14.224,0,28.446,0,42.671,0c5.13,0,10.261,0,15.391,0
			c2.726,0,5-2.274,5-5c0-11.715,0-23.431,0-35.146c0-6.457,0-12.916,0-19.373c0-0.994,0-1.987,0-2.98c0-4.4,4.012-5,7.369-5
			c6.937,0,13.872,0,20.808,0c6.1,0,5.823,5.136,5.823,9.538c0,14.597,0,29.194,0,43.791c0,3.057,0,6.114,0,9.171
			c0,2.726,2.274,5,5,5c20.167,0,40.333,0,60.5,0C552.948,1402.5,552.948,1392.5,546.5,1392.5z"/>
	</g>
</g>
<g>
	<g>
		<path fill="#F9F9F9" d="M465.813,1343c0,16.167,0,32.333,0,48.5c0,6.449,10,6.449,10,0c0-16.167,0-32.333,0-48.5
			C475.813,1336.551,465.813,1336.551,465.813,1343L465.813,1343z"/>
	</g>
</g>
<g>
	<g>
		<path fill="#F9F9F9" d="M543.813,1409c-16.271,0-32.541,0-48.813,0c-6.448,0-6.448,10,0,10c16.271,0,32.542,0,48.813,0
			C550.261,1419,550.261,1409,543.813,1409L543.813,1409z"/>
	</g>
</g>
<g>
	<g>
		<path fill="#F9F9F9" d="M73.583,1404.251c0.5,9.276,7.141,15.918,16.417,16.418c9.256,0.499,15.958-7.892,16.417-16.418
			c0.499-9.256-7.891-15.958-16.417-16.417C80.745,1387.336,74.042,1395.725,73.583,1404.251c-0.347,6.446,9.655,6.413,10,0
			c0.446-8.279,12.389-8.279,12.834,0c0.446,8.286-12.391,8.241-12.834,0C83.238,1397.838,73.236,1397.805,73.583,1404.251z"/>
	</g>
</g>
<g>
	<g>
		<path fill="#F9F9F9" d="M127.564,1444.473c0.5,9.276,7.142,15.917,16.417,16.417c9.255,0.499,15.958-7.891,16.417-16.417
			c0.499-9.256-7.891-15.959-16.417-16.418C134.726,1427.557,128.023,1435.946,127.564,1444.473c-0.347,6.447,9.655,6.413,10,0
			c0.446-8.28,12.389-8.28,12.835,0c0.446,8.285-12.391,8.239-12.835,0C137.219,1438.061,127.217,1438.025,127.564,1444.473z"/>
	</g>
</g>
<g>
	<g>
		<path fill="#F9F9F9" d="M186.666,1422.001c0.5,9.276,7.141,15.918,16.417,16.418c9.256,0.499,15.958-7.892,16.417-16.418
			c0.499-9.256-7.891-15.958-16.417-16.417C193.827,1405.086,187.125,1413.475,186.666,1422.001c-0.347,6.446,9.655,6.413,10,0
			c0.446-8.28,12.389-8.28,12.834,0c0.446,8.286-12.391,8.241-12.834,0C196.32,1415.588,186.318,1415.555,186.666,1422.001z"/>
	</g>
</g>
<path fill="#F9F9F9" d="M208.288,1493.373c0,2.875-2.33,5.205-5.205,5.205l0,0c-2.875,0-5.205-2.33-5.205-5.205v-53.729
	c0-2.875,2.33-5.204,5.205-5.204l0,0c2.875,0,5.205,2.329,5.205,5.204V1493.373z"/>
<g>
	<polygon fill="#F9F9F9" points="43.148,521.958 16.129,537.586 16.103,506.372 	"/>
	<g>
		<path fill="#F9F9F9" d="M41.886,519.799c-9.006,5.21-18.013,10.419-27.019,15.629c1.254,0.72,2.508,1.438,3.762,2.158
			c-0.009-10.404-0.017-20.81-0.026-31.214c-1.254,0.72-2.508,1.439-3.762,2.159c9.015,5.195,18.03,10.391,27.045,15.586
			c2.799,1.612,5.315-2.709,2.523-4.318c-9.015-5.194-18.03-10.391-27.045-15.586c-1.639-0.943-3.763,0.255-3.762,2.159
			c0.009,10.404,0.017,20.81,0.026,31.214c0.001,1.901,2.121,3.107,3.762,2.158c9.006-5.209,18.013-10.418,27.019-15.627
			C47.199,522.503,44.683,518.182,41.886,519.799z"/>
	</g>
</g>
<g>
	<polygon fill="#FFFFFF" points="576.814,480.771 568.76,510.928 546.67,488.874 	"/>
	<g>
		<path fill="#FFFFFF" d="M574.403,480.106c-2.686,10.053-5.369,20.104-8.056,30.155c1.395-0.367,2.786-0.734,4.18-1.103
			c-7.363-7.353-14.728-14.703-22.09-22.054c-0.367,1.393-0.735,2.784-1.104,4.179c10.048-2.701,20.096-5.402,30.145-8.104
			c3.11-0.837,1.788-5.66-1.329-4.821c-10.049,2.7-20.097,5.401-30.146,8.103c-1.818,0.489-2.429,2.855-1.103,4.179
			c7.362,7.353,14.727,14.703,22.09,22.055c1.323,1.32,3.69,0.72,4.179-1.104c2.686-10.053,5.369-20.104,8.055-30.156
			C580.059,478.316,575.235,476.995,574.403,480.106z"/>
	</g>
</g>
<path fill="#F9F9F9" d="M95.122,1495.851c0,1.507-2.33,2.729-5.205,2.729l0,0c-2.875,0-5.205-1.221-5.205-2.729v-65.124
	c0-1.506,2.33-2.727,5.205-2.727l0,0c2.875,0,5.205,1.221,5.205,2.727V1495.851z"/>
<path fill="#F9F9F9" d="M208.288,1496.526c0,1.134-2.33,2.052-5.205,2.052l0,0c-2.875,0-5.205-0.918-5.205-2.052v-48.977
	c0-1.133,2.33-2.051,5.205-2.051l0,0c2.875,0,5.205,0.918,5.205,2.051V1496.526z"/>
<path fill="#F9F9F9" d="M149.187,1419.756c0,1.24-2.331,2.245-5.205,2.245l0,0c-2.875,0-5.205-1.005-5.205-2.245v-53.589
	c0-1.24,2.331-2.245,5.205-2.245l0,0c2.875,0,5.205,1.005,5.205,2.245V1419.756z"/>
<path fill="#F9F9F9" d="M208.288,1390.454c0,4.168-2.33,7.546-5.205,7.546l0,0c-2.875,0-5.205-3.378-5.205-7.546v-18.986
	c0-4.168,2.33-7.546,5.205-7.546l0,0c2.875,0,5.205,3.378,5.205,7.546V1390.454z"/>
<path fill="#F9F9F9" d="M95.205,1377.188c0,2.084-2.33,3.773-5.205,3.773l0,0c-2.875,0-5.205-1.689-5.205-3.773v-9.491
	c0-2.084,2.33-3.773,5.205-3.773l0,0c2.875,0,5.205,1.689,5.205,3.773V1377.188z"/>
<path fill="#F9F9F9" d="M149.187,1491.477c0,3.924-2.33,7.103-5.205,7.103l0,0c-2.875,0-5.205-3.179-5.205-7.103v-17.865
	c0-3.922,2.33-7.102,5.205-7.102l0,0c2.875,0,5.205,3.18,5.205,7.102V1491.477z"/>
</svg>
