<?xml version="1.0" encoding="iso-8859-1"?>
<!-- Generator: Adobe Illustrator 16.2.0, SVG Export Plug-In . SVG Version: 6.00 Build 0)  -->
<!DOCTYPE svg PUBLIC "-//W3C//DTD SVG 1.1//EN" "http://www.w3.org/Graphics/SVG/1.1/DTD/svg11.dtd">
<svg version="1.1" id="&#x421;&#x43B;&#x43E;&#x439;_1"
	 xmlns="http://www.w3.org/2000/svg" xmlns:xlink="http://www.w3.org/1999/xlink" x="0px" y="0px" width="500px" height="500px"
	 viewBox="0 0 500 500" style="enable-background:new 0 0 500 500;" xml:space="preserve">
<path style="fill:#FFFFFF;stroke:#000000;stroke-width:4;stroke-miterlimit:10;" d="M100.477,32.295
	c0,0-50.521,54.379-17.366,130.509h34.732C150.999,86.674,100.477,32.295,100.477,32.295"/>
<rect x="99.166" y="30.047" transform="matrix(0.707 0.7072 -0.7072 0.707 51.6142 -61.8701)" width="2.622" height="2.621"/>
<polyline style="fill:none;stroke:#000000;stroke-width:4;stroke-miterlimit:10;" points="94.443,170 82.179,170 82.179,168.201 
	82.179,166.402 82.179,164.604 82.179,162.804 90.902,162.804 99.624,162.804 108.345,162.804 117.068,162.804 117.068,164.604 
	117.068,166.402 117.068,168.201 117.068,170 104.193,170 "/>
<polyline style="fill:none;stroke:#000000;stroke-width:4;stroke-miterlimit:10;" points="112.068,170 112.068,173.598 
	112.068,177.196 99.545,177.196 87.023,177.196 87.023,173.598 87.023,170 "/>
<path style="fill:none;stroke:#000000;stroke-width:4;stroke-miterlimit:10;" d="M72.152,119.528c0,0-29.652,16.472-10.652,61.972
	s-12.765-36.122,15.118-36.811"/>
<path style="fill:none;stroke:#000000;stroke-width:4;stroke-miterlimit:10;" d="M130.584,116.739c0,0,29.652,16.472,10.652,61.972
	s12.765-36.122-15.118-36.811"/>
<circle style="fill:none;stroke:#000000;stroke-width:4;stroke-miterlimit:10;" cx="100.555" cy="80" r="7.555"/>
<circle style="fill:none;stroke:#000000;stroke-width:4;stroke-miterlimit:10;" cx="100.477" cy="114.563" r="17.555"/>
<path style="fill:none;stroke:#000000;stroke-width:4;stroke-miterlimit:10;" d="M92.469,44.48c0,0,7.252,6.98,16.642,0"/>
<path style="fill:none;stroke:#000000;stroke-width:4;stroke-miterlimit:10;" d="M345.014,178.902
	c1.039-4.971,2.029-10.282,2.82-15.607c0.792-5.325,1.386-10.666,1.633-15.694c0.248-5.029,0.148-9.747-0.445-13.828
	c-0.594-4.082-1.682-7.526-3.414-10.009c-1.731-2.483-4.106-4.003-7.273-4.236"/>
<path style="fill:none;stroke:#000000;stroke-width:4;stroke-miterlimit:10;" d="M262.305,153.115
	c0.301,3.966,0.946,8.379,2.029,13.287s2.031,9.202,2.86,12.96s1.54,6.979,2.149,9.74c0.609,2.761,1.117,5.062,1.54,6.979
	c0.424,1.917,0.763,3.451,1.033,4.678s0.474,2.147,0.626,2.837c0.152,0.69,0.254,1.15,0.321,1.457s0.102,0.46,0.119,0.537
	c0.017,0.077,0.017,0.077,0.017,0.077h4.167h4.167h4.166h4.167h4.167H298h4.167h4.167h4h4h4h4h4h4h4h4c0,0,3.502-13.167,1.039-3.625
	"/>
<path style="fill:none;stroke:#000000;stroke-width:4;stroke-miterlimit:10;" d="M275,119.528c0,0-0.302,0.119-0.813,0.404
	c-0.512,0.285-1.233,0.735-2.071,1.399c-0.839,0.664-1.795,1.54-2.775,2.676c-0.98,1.136-1.985,2.532-2.923,4.234
	c-0.937,1.703-1.807,3.712-2.517,6.075"/>
<path style="fill:none;stroke:#000000;stroke-width:4;stroke-miterlimit:10;" d="M329.768,78.524
	c5.609,5.61,9.079,13.36,9.079,21.92s-3.47,16.311-9.079,21.92c-5.61,5.61-13.36,9.08-21.921,9.08s-16.311-3.47-21.921-9.08
	c-5.609-5.61-9.079-13.36-9.079-21.92s2.278-19.712,8.525-28.856"/>
<path style="fill:none;stroke:#000000;stroke-width:4;stroke-miterlimit:10;" d="M276.793,101.53c0,0-2.043-33.28,26.654-43.375
	c22.525-7.923,30.153-7.013,29.528-11.553c-0.625-4.54,2.251,20.953-19.48,18.918"/>
<path style="fill:none;stroke:#000000;stroke-width:4;stroke-miterlimit:10;" d="M323.599,64.003c1.761,0.491,17.636,1.511,18.068,0
	c1.333-4.669-5.461,8.128-12.73,16.729"/>
<line style="fill:none;stroke:#000000;stroke-width:4;stroke-miterlimit:10;" x1="237.667" y1="146.333" x2="283.334" y2="146.333"/>
<polygon style="fill:none;stroke:#000000;stroke-width:4;stroke-miterlimit:10;" points="303.119,151.324 300.237,146.333 
	303.119,141.343 308.881,141.343 311.763,146.333 308.881,151.324 "/>
<polyline style="fill:none;stroke:#000000;stroke-width:4;stroke-miterlimit:10;" points="295.555,153.991 286.713,153.991 
	282.291,146.333 286.713,138.676 295.555,138.676 "/>
<path style="fill:none;stroke:#000000;stroke-width:4;stroke-miterlimit:10;" d="M287.291,69.573c0,0,9.644-21.402,20.257-22.519
	c10.612-1.117-1.897-2.599-1.781,11.43"/>
<polygon style="fill:none;stroke:#000000;stroke-width:4;stroke-miterlimit:10;" points="348.667,191.5 342.373,196.667 
	350.667,199.667 374,197.333 371.667,187.333 "/>
<polygon points="348.667,191.5 350.667,199.667 342.373,196.667 "/>
<polygon style="fill:none;stroke:#000000;stroke-width:4;stroke-miterlimit:10;" points="303.119,174.991 300.237,170 
	303.119,165.009 308.881,165.009 311.763,170 308.881,174.991 "/>
<path style="fill:none;stroke:#000000;stroke-width:4;stroke-miterlimit:10;" d="M132.667,288h-65c-1.381,0-2.631-0.56-3.536-1.465
	c-0.905-0.904-1.464-2.154-1.464-3.535v-15.5V252c0-1.381,0.56-2.631,1.464-3.536S66.286,247,67.667,247h40.667H149
	c1.381,0,2.631,0.56,3.536,1.464S154,250.619,154,252v15.5"/>
<g>
	<g>
		<path d="M107.812,267.257c0,6.673-4.055,10.208-9,10.208c-5.118,0-8.713-3.969-8.713-9.834c0-6.152,3.825-10.18,9-10.18
			C104.39,257.451,107.812,261.507,107.812,267.257z M92.773,267.572c0,4.143,2.242,7.851,6.183,7.851
			c3.967,0,6.21-3.652,6.21-8.052c0-3.852-2.012-7.878-6.182-7.878C94.843,259.493,92.773,263.318,92.773,267.572z"/>
		<g>
			<path d="M107.187,267.257c-0.174,4.528-2.086,8.331-6.735,9.44c-5.893,1.406-9.515-3.892-9.729-9.066
				c-0.182-4.411,2.385-8.286,6.668-9.392C103.318,256.709,106.979,262.076,107.187,267.257c0.032,0.804,1.282,0.807,1.25,0
				c-0.229-5.72-3.353-10.121-9.338-10.431c-6.133-0.316-9.415,5.445-9.625,10.805c-0.223,5.69,3.71,10.165,9.338,10.459
				c6.24,0.325,9.416-5.394,9.625-10.833C108.468,266.45,107.218,266.453,107.187,267.257z"/>
			<path d="M92.148,267.572c0.165,4.25,2.194,8.162,6.808,8.476c4.73,0.321,6.695-4.856,6.835-8.677
				c0.156-4.259-2.413-8.196-6.807-8.503C94.22,258.535,92.283,263.731,92.148,267.572c-0.028,0.807,1.222,0.804,1.25,0
				c0.125-3.584,1.525-7.182,5.585-7.454c3.915-0.263,5.441,4.137,5.557,7.253c0.133,3.553-1.758,7.172-5.585,7.427
				c-3.901,0.26-5.437-4.12-5.558-7.226C93.367,266.769,92.117,266.766,92.148,267.572z"/>
		</g>
	</g>
	<g>
		<path d="M111.072,257.768h2.501v9.347h0.085c0.518-0.747,1.036-1.438,1.524-2.07l5.924-7.276h3.105l-7.016,8.225l7.563,11.156
			h-2.962l-6.384-9.518l-1.84,2.129v7.389h-2.501V257.768z"/>
		<g>
			<path d="M111.072,258.393c0.293,0,0.587,0,0.88,0c1.349,0,0.996,0.311,0.996-0.55c0,0.932,0,1.864,0,2.796
				c0,2.158,0,4.317,0,6.476c0,0.341,0.284,0.625,0.625,0.625c1.105,0,3.982-4.625,4.78-5.604c1.004-1.233,2.008-2.467,3.012-3.7
				c0.099-0.122,0.111-0.042,0.963-0.042c0.628,0,1.255,0,1.883,0c-0.147-0.355-0.294-0.711-0.442-1.067
				c-2.338,2.742-4.677,5.483-7.016,8.225c-0.175,0.205-0.263,0.514-0.098,0.758c2.521,3.719,5.042,7.438,7.563,11.156
				c0.18-0.313,0.36-0.627,0.54-0.94c-0.988,0-2.711-0.122-2.559,0.106c-0.677-1.01-1.354-2.019-2.031-3.028
				c-1.405-2.096-2.811-4.19-4.216-6.286c-0.209-0.313-0.703-0.448-0.981-0.127c-2.059,2.382-2.023,2.734-2.023,5.896
				c0,0.923,0,1.845,0,2.768c0,1.465-0.173,0.671,0.365,0.671c-0.454,0-0.907,0-1.361,0c-0.753-0.176-0.838,0.02-0.255,0.586
				c0-0.293,0-0.586,0-0.879c0-6.154,0-12.309,0-18.463c0-0.806-1.25-0.806-1.25,0c0,6.46,0,12.921,0,19.381
				c0,0.341,0.284,0.625,0.625,0.625c0.834,0,1.667,0,2.501,0c0.341,0,0.625-0.284,0.625-0.625c0-1.824,0-3.648,0-5.473
				c0-2.077,0.188-1.903,1.657-3.603c-0.327-0.043-0.654-0.085-0.981-0.127c1.656,2.47,3.313,4.939,4.97,7.409
				c1.701,2.536,1.722,2.418,4.916,2.418c0.45,0,0.811-0.54,0.54-0.94c-2.371-3.498-4.742-6.996-7.114-10.494
				c-0.68-1.003-0.707,0.284-0.158-0.36c0.791-0.927,1.582-1.854,2.373-2.781c1.418-1.663,2.836-3.325,4.254-4.987
				c0.342-0.401,0.136-1.067-0.442-1.067c-1.024,0-2.998-0.492-3.73,0.408c-1.688,2.073-3.376,4.146-5.063,6.22
				c-0.524,0.644-1.024,1.286-1.526,1.95c0.076-0.101,0.306,2.212,0.306,0.768c0-0.527,0-1.055,0-1.582c0-2.379,0-4.759,0-7.139
				c0-0.341-0.284-0.625-0.625-0.625c-0.834,0-1.667,0-2.501,0C110.266,257.143,110.266,258.393,111.072,258.393z"/>
		</g>
	</g>
</g>
<g>
	<g>
		<path d="M170.623,295.58c-2.357-2.429-4.715-4.857-7.072-7.287c0,0.884,0,1.769,0,2.652c1.665-1.32,3.33-2.641,4.995-3.961
			c1.226-0.972,0.324-2.683-0.827-3.134c-7.479-2.932-14.957-5.863-22.436-8.795c-1.486-0.583-2.496,1.067-2.307,2.306
			c1.206,7.906,2.412,15.813,3.618,23.719c0.237,1.555,2.172,1.59,3.134,0.828c1.808-1.435,3.616-2.868,5.424-4.302
			c-0.884,0-1.768,0-2.651,0c1.644,1.693,3.289,3.388,4.933,5.081c1.227,1.264,2.752,3.476,4.575,3.978
			c5.374,1.478,11.694-5.785,8.909-10.705c-1.191-2.104-4.431-0.215-3.238,1.893c0.747,1.319-2.921,6.997-5.007,4.848
			c-0.862-0.888-1.724-1.776-2.586-2.664c-1.645-1.694-3.289-3.388-4.933-5.082c-0.772-0.795-1.861-0.626-2.651,0
			c-1.808,1.435-3.616,2.868-5.424,4.302c1.044,0.276,2.089,0.552,3.134,0.828c-1.206-7.906-2.412-15.813-3.618-23.719
			c-0.769,0.769-1.538,1.537-2.307,2.306c7.479,2.932,14.957,5.863,22.436,8.795c-0.276-1.044-0.551-2.089-0.827-3.134
			c-1.665,1.32-3.33,2.641-4.995,3.961c-0.811,0.643-0.649,1.982,0,2.652c2.357,2.429,4.715,4.857,7.072,7.287
			C169.658,299.97,172.307,297.315,170.623,295.58z"/>
	</g>
</g>
<g>
	<g>
		<path d="M144.923,263.002c-0.517,2.306-1.033,4.611-1.55,6.916c-0.704,3.142,4.116,4.476,4.821,1.33
			c0.517-2.306,1.033-4.611,1.55-6.916C150.449,261.19,145.628,259.856,144.923,263.002L144.923,263.002z"/>
	</g>
</g>
<g>
	<g>
		<path d="M132.34,270.334c1.634,1.706,3.269,3.412,4.903,5.117c2.234,2.332,5.765-1.208,3.535-3.535
			c-1.634-1.706-3.269-3.412-4.903-5.117C133.641,264.467,130.11,268.007,132.34,270.334L132.34,270.334z"/>
	</g>
</g>
<g>
	<g>
		<path d="M130.017,283.627c2.362-0.002,4.725-0.003,7.087-0.005c3.224-0.002,3.225-5.002,0-5c-2.362,0.002-4.725,0.003-7.087,0.005
			C126.792,278.629,126.792,283.629,130.017,283.627L130.017,283.627z"/>
	</g>
</g>
</svg>
