<?xml version="1.0" encoding="iso-8859-1"?>
<!-- Generator: Adobe Illustrator 16.2.0, SVG Export Plug-In . SVG Version: 6.00 Build 0)  -->
<!DOCTYPE svg PUBLIC "-//W3C//DTD SVG 1.1//EN" "http://www.w3.org/Graphics/SVG/1.1/DTD/svg11.dtd">
<svg version="1.1" id="&#x421;&#x43B;&#x43E;&#x439;_1"
	 xmlns="http://www.w3.org/2000/svg" xmlns:xlink="http://www.w3.org/1999/xlink" x="0px" y="0px" width="678px" height="498px"
	 viewBox="0 0 678 498" style="enable-background:new 0 0 678 498;" xml:space="preserve">
<polygon style="fill:#F7931E;" points="-634,356.313 -662,356.167 -662,327.859 -634,308.341 "/>
<rect x="-662" y="361" style="fill:#CE4728;" width="28" height="80"/>
<polygon style="fill:#F15A24;" points="-662.016,441 -444.663,441 -458.406,467 -643.979,467 "/>
<polygon style="fill:#CE4728;" points="-474,441.089 -474,311.887 -445,327.086 -445,441.129 "/>
<polygon style="fill:#B73B27;" points="-473.659,340 -576.576,340 -558.635,312 -473.628,312 "/>
<rect x="-576" y="340" style="fill:#9B3227;" width="29" height="101"/>
<path style="opacity:0.5;fill:#9B3227;" d="M-662.102,441.109c0,0,28.102-19.631,28.102-32.585c0-12.953,0,32.476,0,32.476"/>
<path style="opacity:0.5;fill:#9B3227;" d="M-473.102,441.109c0,0,28.102-19.631,28.102-32.585c0-12.953,0,32.476,0,32.476"/>
<path style="opacity:0.5;fill:#9B3227;" d="M-473.356,340.102c0,0-20.097-28.102-33.05-28.102c-12.954,0,33.406,0,33.406,0"/>
<path style="opacity:0.1;fill:#020101;" d="M-547.898,339.952c0,0-28.102,19.69-28.102,32.644S-576,340-576,340"/>
<polygon style="fill:#F15A24;" points="-290.666,191.329 -344.803,159.304 -344.137,96.408 -289.334,65.537 -235.197,97.563 
	-235.863,160.459 "/>
<polygon style="opacity:0.2;" points="-235.863,160.459 -235.628,138.253 -291.901,94.732 -287.75,109.5 -294,114 -300.676,161.685 
	-274.848,182.419 "/>
<polygon style="fill:#45D8D0;" points="-270.527,125 -289.999,91.275 -309.469,125 -301,125 -301,162 -279,162 -279,125 "/>
<line style="fill:none;stroke:#F15A24;stroke-miterlimit:10;" x1="-267.578" y1="80.037" x2="-299.269" y2="111.728"/>
<line style="fill:none;stroke:#F15A24;stroke-miterlimit:10;" x1="-266.736" y1="86.266" x2="-302.177" y2="121.707"/>
<line style="fill:none;stroke:#F15A24;stroke-miterlimit:10;" x1="-258.825" y1="85.425" x2="-292.197" y2="118.798"/>
<line style="fill:none;stroke:#F15A24;stroke-miterlimit:10;" x1="-259.666" y1="93.337" x2="-295.105" y2="128.778"/>
<line style="fill:none;stroke:#F15A24;stroke-miterlimit:10;" x1="-250.394" y1="89.722" x2="-285.835" y2="125.163"/>
<polyline style="fill:#C64720;" points="-284.857,100.18 -264.236,116.128 -272.429,121.707 "/>
<polyline style="fill:#B2322B;" points="480,94 618,94 600.334,150 425,150 "/>
<polygon style="fill:#B2322B;" points="216,302 124,302 32,94 124,94 "/>
<polygon style="fill:#B2322B;" points="246,302 338,302 430,94 338,94 "/>
<polygon style="fill:#D32F2F;" points="246,302 338,302 278,130 186,130 "/>
<polygon style="fill:#EF4B4B;" points="216,302 124,302 184,130 276,130 "/>
<polyline style="fill:#B2322B;" points="480,193 566,171 566,214 480,236 "/>
<polygon style="fill:#B2322B;" points="594.334,302 425,302 479.925,248 618,249 "/>
<polygon style="fill:#EF4B4B;" points="480,302 480,95.141 425,147.925 425,302 "/>
<polyline style="fill:#EF4B4B;" points="566,171 566,214 529,198 529,162 "/>
</svg>
