<?xml version="1.0" encoding="iso-8859-1"?>
<!-- Generator: Adobe Illustrator 16.2.0, SVG Export Plug-In . SVG Version: 6.00 Build 0)  -->
<!DOCTYPE svg PUBLIC "-//W3C//DTD SVG 1.1//EN" "http://www.w3.org/Graphics/SVG/1.1/DTD/svg11.dtd">
<svg version="1.1" id="&#x421;&#x43B;&#x43E;&#x439;_1"
	 xmlns="http://www.w3.org/2000/svg" xmlns:xlink="http://www.w3.org/1999/xlink" x="0px" y="0px" width="591px" height="589px"
	 viewBox="0 0 591 589" style="enable-background:new 0 0 591 589;" xml:space="preserve">
<polygon style="fill:#FFFFFF;stroke:#E95700;stroke-width:18;stroke-miterlimit:10;" points="52.742,153.449 302.342,13.598 
	551.058,154.948 550.172,436.149 300.572,576 51.857,434.649 "/>
<path style="fill:#FFFFFF;stroke:#000000;stroke-width:6;stroke-miterlimit:10;" d="M300.633,57.666
	c0,0-133.031,145.237-45.729,348.572h91.456C433.662,202.902,300.633,57.666,300.633,57.666"/>
<polygon style="fill:#231300;stroke:#000000;stroke-width:6;stroke-miterlimit:10;" points="300.633,60.112 295.753,55.16 
	300.633,50.209 305.515,55.16 "/>
<polyline style="fill:none;stroke:#000000;stroke-width:6;stroke-miterlimit:10;" points="284.743,425.453 252.451,425.453 
	252.451,420.648 252.451,415.844 252.451,411.041 252.451,406.236 275.42,406.236 298.387,406.236 321.35,406.236 344.321,406.236 
	344.321,411.041 344.321,415.844 344.321,420.648 344.321,425.453 310.418,425.453 "/>
<polyline style="fill:none;stroke:#000000;stroke-width:6;stroke-miterlimit:10;" points="331.154,425.453 331.154,435.061 
	331.154,444.67 298.179,444.67 265.205,444.67 265.205,435.061 265.205,425.453 "/>
<path style="fill:none;stroke:#000000;stroke-width:6;stroke-miterlimit:10;" d="M226.048,290.65c0,0-78.078,43.994-28.047,165.516
	c50.03,121.524-33.613-96.476,39.808-98.314"/>
<path style="fill:none;stroke:#000000;stroke-width:6;stroke-miterlimit:10;" d="M375.507,283.985c0,0,79.929,40.686,35.248,164.192
	c-44.679,123.506,29.371-97.793-44.061-96.56"/>
<ellipse style="fill:none;stroke:#000000;stroke-width:6;stroke-miterlimit:10;" cx="300.84" cy="185.077" rx="19.896" ry="20.18"/>
<path style="fill:none;stroke:#000000;stroke-width:6;stroke-miterlimit:10;" d="M254.407,277.391
	c0,25.896,20.698,46.888,46.228,46.888c25.525,0,46.225-20.991,46.225-46.888c0-25.896-20.7-46.89-46.225-46.89
	C275.105,230.5,254.407,251.495,254.407,277.391z"/>
<path style="fill:none;stroke:#000000;stroke-width:6;stroke-miterlimit:10;" d="M279.546,90.21c0,0,19.098,18.644,43.823,0"/>
</svg>
