<?xml version="1.0" encoding="iso-8859-1"?>
<!-- Generator: Adobe Illustrator 16.2.0, SVG Export Plug-In . SVG Version: 6.00 Build 0)  -->
<!DOCTYPE svg PUBLIC "-//W3C//DTD SVG 1.1//EN" "http://www.w3.org/Graphics/SVG/1.1/DTD/svg11.dtd">
<svg version="1.1" id="&#x421;&#x43B;&#x43E;&#x439;_1"
	 xmlns="http://www.w3.org/2000/svg" xmlns:xlink="http://www.w3.org/1999/xlink" x="0px" y="0px" width="591px" height="589px"
	 viewBox="0 0 591 589" style="enable-background:new 0 0 591 589;" xml:space="preserve">
<polygon style="fill:#FF6311;" points="51.285,153.449 300.885,13.598 549.601,154.948 548.715,436.149 299.115,576 50.4,434.649 
	"/>
<polygon style="fill:#FFFFFF;stroke:#E95700;stroke-width:18;stroke-miterlimit:10;" points="51.285,153.45 300.885,13.599 
	549.601,154.948 548.715,436.15 299.115,576 50.399,434.65 "/>
<path style="fill:none;stroke:#000000;stroke-width:7;stroke-miterlimit:10;" d="M376.356,351.501H154.636
	c-4.71,0-8.974-1.885-12.06-4.935c-3.086-3.045-4.995-7.256-4.995-11.907v-52.21v-52.21c0-4.652,1.909-8.862,4.995-11.91
	s7.35-4.933,12.06-4.933h138.717h138.716c4.711,0,8.975,1.885,12.059,4.933c3.088,3.047,4.997,7.258,4.997,11.91v52.21"/>
<g>
	<g>
		<path d="M291.574,281.631c0,22.479-13.833,34.387-30.699,34.387c-17.459,0-29.723-13.371-29.723-33.126
			c0-20.724,13.047-34.29,30.7-34.29C279.903,248.601,291.574,262.262,291.574,281.631z M240.277,282.693
			c0,13.952,7.647,26.444,21.089,26.444c13.533,0,21.182-12.303,21.182-27.122c0-12.974-6.863-26.536-21.086-26.536
			C247.337,255.479,240.277,268.364,240.277,282.693z"/>
		<g>
			<path d="M290.949,281.631c-0.247,17.141-9.604,32.163-27.741,33.684c-18.618,1.561-30.587-13.59-31.407-30.954
				c-0.84-17.796,10.221-34.056,28.769-35.11C279.521,248.173,290.685,264.181,290.949,281.631c0.012,0.806,1.262,0.807,1.25,0
				c-0.283-18.69-11.984-34-31.63-33.631c-19.674,0.37-30.298,18.41-30.019,36.36c0.289,18.555,13.749,33.146,32.657,32.203
				c18.864-0.938,28.741-17.551,28.991-34.933C292.21,280.824,290.96,280.825,290.949,281.631z"/>
			<path d="M239.652,282.693c0.241,13.168,7.144,26.616,21.714,27.069c14.998,0.467,21.595-15.053,21.807-27.747
				c0.221-13.221-7.424-26.705-21.711-27.161C246.352,254.372,239.855,269.914,239.652,282.693c-0.013,0.807,1.237,0.806,1.25,0
				c0.194-12.183,5.546-25.309,19.215-26.549c14.618-1.326,21.588,13.488,21.806,25.871c0.213,12.116-5.994,25.264-19.266,26.459
				c-14.537,1.31-21.53-13.475-21.755-25.782C240.887,281.888,239.637,281.887,239.652,282.693z"/>
		</g>
	</g>
	<g>
		<path d="M302.694,249.667h8.532v31.483h0.291c1.768-2.517,3.535-4.845,5.2-6.975l20.207-24.509h10.594l-23.933,27.704
			l25.798,37.579H339.28l-21.775-32.06l-6.278,7.171v24.889h-8.532V249.667z"/>
		<g>
			<path d="M302.694,250.292c1.586,0,3.172,0,4.758,0c1.077,0,2.154,0,3.23,0c0.89,0-0.081-0.972-0.081-0.271
				c0,3.203,0,6.405,0,9.608c0,7.174,0,14.348,0,21.522c0,0.341,0.284,0.625,0.625,0.625c1.913,0,4.955-5.897,5.935-7.158
				c0.598-0.771,1.244-1.509,1.864-2.262c3.374-4.093,6.749-8.186,10.123-12.278c2.663-3.231,5.327-6.462,7.991-9.693
				c0.4-0.485-0.454-0.092,0.24-0.092c1.284,0,2.569,0,3.854,0c2.096,0,4.189,0,6.284,0c-0.146-0.355-0.295-0.711-0.441-1.067
				c-7.979,9.235-15.955,18.469-23.934,27.704c-0.175,0.203-0.263,0.516-0.098,0.757c4.395,6.399,8.786,12.799,13.18,19.197
				c3.033,4.421,6.067,8.839,9.102,13.257c0.925,1.348,1.851,2.694,2.774,4.043c1.063,1.547,1.292,0.143,0.351,0.143
				c-2.275,0-4.552,0-6.827,0c-0.744,0-1.487,0-2.23,0c0.459,0,0.482,0.393-0.017-0.342c-2.301-3.389-4.603-6.777-6.904-10.166
				c-4.81-7.082-9.618-14.162-14.428-21.242c-0.213-0.313-0.701-0.447-0.981-0.127c-1.478,1.688-6.462,5.547-6.462,7.813
				c0,5.372,0,10.744,0,16.117c0,2.463,0,4.928,0,7.393c0,1.504-0.188,0.556,0.481,0.556c-1.211,0-2.421,0-3.632,0
				c-1.404,0-2.811,0-4.214,0c-0.886,0,0.081,1.004,0.081,0.307c0-1.268,0-2.534,0-3.803c0-20.387,0-40.774,0-61.162
				c0-0.806-1.25-0.806-1.25,0c0,21.761,0,43.521,0,65.283c0,0.34,0.283,0.625,0.625,0.625c2.845,0,5.688,0,8.532,0
				c0.342,0,0.625-0.285,0.625-0.625c0-7.742,0-15.482,0-23.224c0-1.573-0.226-1.175,0.471-1.97
				c1.508-1.722,3.017-3.444,4.523-5.166c1.271-1.451-0.08-1.678,0.563-0.732c0.884,1.302,1.769,2.604,2.652,3.906
				c5.324,7.839,10.649,15.677,15.975,23.518c0.589,0.866,1.934,3.954,3.079,4.271c2.982,0.821,7.162,0.022,10.27,0.022
				c0.447,0,0.814-0.541,0.54-0.941c-8.278-12.061-16.559-24.119-24.838-36.18c-0.315-0.458-0.63-0.917-0.944-1.375
				c0.302,0.438-0.355,1.015,0.248,0.315c0.336-0.39,0.674-0.779,1.011-1.169c2.773-3.211,5.549-6.422,8.321-9.634
				c4.746-5.494,9.493-10.988,14.239-16.482c0.345-0.4,0.133-1.067-0.442-1.067c-3.49,0-6.982,0-10.475,0
				c-1.177,0-2.633,2.695-3.259,3.455c-5.448,6.608-10.896,13.217-16.346,19.826c-2.068,2.509-5.589,6.297-5.589,8.475
				c0-3.203,0-6.405,0-9.608c0-7.174,0-14.348,0-21.522c0-0.341-0.283-0.625-0.625-0.625c-2.845,0-5.688,0-8.532,0
				C301.889,249.042,301.889,250.292,302.694,250.292z"/>
		</g>
	</g>
</g>
<g>
	<g>
		<path style="fill:#231300;stroke:#000000;stroke-width:7;stroke-miterlimit:10;" d="M502.63,380.177
			c-8.042-8.182-16.083-16.362-24.124-24.547c0,0.886,0,1.771,0,2.652c5.679-4.447,11.358-8.896,17.038-13.343
			c1.229-0.963,0.321-2.688-0.828-3.133c-25.509-9.877-51.019-19.752-76.528-29.627c-1.484-0.574-2.497,1.063-2.306,2.307
			c4.113,26.632,8.229,53.265,12.342,79.896c0.24,1.562,2.168,1.584,3.135,0.828c6.167-4.83,12.334-9.66,18.502-14.489
			c-0.885,0-1.77,0-2.652,0c8.767,8.918,17.534,17.838,26.301,26.758C485.751,419.936,513.804,393.438,502.63,380.177
			c-1.561-1.852-4.199,0.814-2.652,2.652c7.262,8.614-8.808,21.453-15.882,23.573c-5.962,1.787-8.925-2.582-12.541-6.262
			c-7.231-7.358-14.464-14.717-21.694-22.074c-0.78-0.795-1.854-0.625-2.652,0c-6.167,4.83-12.334,9.66-18.502,14.49
			c1.045,0.277,2.09,0.553,3.134,0.828c-4.113-26.631-8.228-53.264-12.342-79.895c-0.77,0.768-1.537,1.537-2.306,2.305
			c25.509,9.877,51.019,19.752,76.527,29.627c-0.275-1.045-0.552-2.09-0.828-3.135c-5.679,4.447-11.357,8.895-17.038,13.342
			c-0.811,0.637-0.649,1.99,0,2.652c8.042,8.182,16.083,16.363,24.124,24.547C501.675,384.557,504.325,381.9,502.63,380.177z"/>
	</g>
</g>
<g>
	<g>
		<path style="fill:#231300;stroke:#000000;stroke-width:7;stroke-miterlimit:10;" d="M423.975,268.874
			c-1.762,7.765-3.522,15.531-5.284,23.295c-0.713,3.142,4.107,4.474,4.821,1.33c1.763-7.766,3.523-15.531,5.285-23.296
			C429.509,267.063,424.688,265.729,423.975,268.874L423.975,268.874z"/>
	</g>
</g>
<g>
	<g>
		<path style="fill:#231300;stroke:#000000;stroke-width:7;stroke-miterlimit:10;" d="M379.502,287.809
			c5.576,5.746,11.152,11.492,16.729,17.237c2.249,2.317,5.78-1.221,3.534-3.535c-5.575-5.745-11.151-11.492-16.729-17.237
			C380.788,281.956,377.256,285.495,379.502,287.809L379.502,287.809z"/>
	</g>
</g>
<g>
	<g>
		<path style="fill:#231300;stroke:#000000;stroke-width:7;stroke-miterlimit:10;" d="M367.315,330.854
			c8.059-0.006,16.115-0.013,24.175-0.019c3.225-0.002,3.225-5.002,0-5c-8.06,0.006-16.116,0.013-24.175,0.019
			C364.091,325.854,364.091,330.854,367.315,330.854L367.315,330.854z"/>
	</g>
</g>
</svg>
