<?xml version="1.0" encoding="iso-8859-1"?>
<!-- Generator: Adobe Illustrator 16.2.0, SVG Export Plug-In . SVG Version: 6.00 Build 0)  -->
<!DOCTYPE svg PUBLIC "-//W3C//DTD SVG 1.1//EN" "http://www.w3.org/Graphics/SVG/1.1/DTD/svg11.dtd">
<svg version="1.1" id="&#x421;&#x43B;&#x43E;&#x439;_1"
	 xmlns="http://www.w3.org/2000/svg" xmlns:xlink="http://www.w3.org/1999/xlink" x="0px" y="0px" width="591px" height="589px"
	 viewBox="0 0 591 589" style="enable-background:new 0 0 591 589;" xml:space="preserve">
<polygon style="fill:#FFFFFF;stroke:#E95700;stroke-width:18;stroke-miterlimit:10;" points="51.285,153.449 300.885,13.598 
	549.601,154.948 548.715,436.149 299.115,576 50.4,434.649 "/>
<path style="fill:none;stroke:#000000;stroke-width:6;stroke-miterlimit:10;" d="M400.554,415.047
	c2.662-12.432,5.2-25.713,7.228-39.035c2.029-13.318,3.552-26.676,4.185-39.252c0.636-12.578,0.38-24.379-1.142-34.586
	c-1.521-10.208-4.31-18.824-8.748-25.033c-4.438-6.209-10.521-10.012-18.637-10.596"/>
<path style="fill:none;stroke:#000000;stroke-width:6;stroke-miterlimit:10;" d="M188.625,350.553
	c0.77,9.918,2.424,20.955,5.2,33.232c2.774,12.275,5.204,23.016,7.329,32.414c2.125,9.397,3.946,17.453,5.507,24.356
	c1.562,6.908,2.864,12.662,3.946,17.455c1.086,4.797,1.955,8.631,2.647,11.699c0.693,3.07,1.214,5.373,1.605,7.098
	c0.39,1.728,0.649,2.877,0.823,3.646c0.172,0.768,0.26,1.151,0.305,1.344c0.042,0.189,0.042,0.189,0.042,0.189h10.678h10.676h10.676
	h10.676h10.678h10.674h10.678h10.678h10.249h10.249h10.25h10.249h10.25h10.249h10.248h10.25c0,0,8.975-32.931,2.662-9.066"/>
<path style="fill:none;stroke:#000000;stroke-width:6;stroke-miterlimit:10;" d="M221.155,266.545c0,0-0.774,0.298-2.084,1.011
	c-1.312,0.714-3.16,1.839-5.308,3.498c-2.149,1.661-4.6,3.854-7.111,6.695c-2.513,2.84-5.087,6.333-7.49,10.59
	c-2.399,4.257-4.629,9.284-6.448,15.196"/>
<path style="fill:none;stroke:#000000;stroke-width:6;stroke-miterlimit:10;" d="M361.487,163.99
	c14.374,14.033,23.265,33.416,23.265,54.827c0,21.411-8.891,40.794-23.265,54.826c-14.374,14.03-34.233,22.708-56.168,22.708
	c-21.937,0-41.793-8.679-56.169-22.708c-14.373-14.032-23.263-33.416-23.263-54.826c0-21.41,5.837-49.302,21.844-72.173"/>
<path style="fill:none;stroke:#000000;stroke-width:6;stroke-miterlimit:10;" d="M225.749,221.533c0,0-5.235-83.238,68.298-108.483
	c57.717-19.819,77.263-17.541,75.661-28.897c-1.601-11.355,5.769,52.403-49.916,47.315"/>
<path style="fill:none;stroke:#000000;stroke-width:6;stroke-miterlimit:10;" d="M345.682,127.673
	c4.512,1.229,45.188,3.779,46.297,0c3.416-11.678-13.992,20.329-32.619,41.842"/>
<line style="fill:none;stroke:#000000;stroke-width:6;stroke-miterlimit:10;" x1="125.494" y1="333.592" x2="242.509" y2="333.592"/>
<polygon style="fill:none;stroke:#000000;stroke-width:6;stroke-miterlimit:10;" points="293.206,346.072 285.822,333.592 
	293.206,321.107 307.969,321.107 315.354,333.592 307.969,346.072 "/>
<polyline style="fill:none;stroke:#000000;stroke-width:6;stroke-miterlimit:10;" points="273.823,352.742 251.167,352.742 
	239.836,333.592 251.167,314.438 273.823,314.438 "/>
<path style="fill:none;stroke:#000000;stroke-width:6;stroke-miterlimit:10;" d="M252.649,141.603c0,0,24.709-53.528,51.905-56.321
	c27.191-2.792-4.861-6.5-4.563,28.589"/>
<polygon style="fill:none;stroke:#000000;stroke-width:6;stroke-miterlimit:10;" points="409.915,446.557 393.787,459.477 
	415.039,466.98 474.827,461.148 468.85,436.137 "/>
<polygon style="fill:#231300;stroke:#000000;stroke-width:6;stroke-miterlimit:10;" points="409.915,446.557 415.039,466.98 
	393.787,459.477 "/>
<polygon style="fill:none;stroke:#000000;stroke-width:6;stroke-miterlimit:10;" points="293.206,405.264 285.822,392.781 
	293.206,380.303 307.969,380.303 315.354,392.781 307.969,405.264 "/>
</svg>
